<svg xmlns="http://www.w3.org/2000/svg" width="512" height="512" viewBox="0 0 428.235 428.235">
    <path d="M401.471 0H133.824c-14.781 0-26.765 11.984-26.765 26.765v53.529h214.118c14.781 0 26.765 11.984 26.765 26.765v214.118h53.529c14.781 0 26.765-11.984 26.765-26.765V26.765C428.235 11.984 416.251 0 401.471 0z"/>
    <path d="M294.412 107.059H26.765C11.984 107.059 0 119.043 0 133.824v267.647c0 14.781 11.984 26.765 26.765 26.765h267.647c14.781 0 26.765-11.984 26.765-26.765V133.824c-.001-14.781-11.985-26.765-26.765-26.765zm-53.53 187.353h-53.529v53.529h-53.529v-53.529h-53.53v-53.529h53.529v-53.529h53.529v53.529h53.529v53.529z"/>
</svg>
