<svg xmlns="http://www.w3.org/2000/svg" enable-background="new 0 0 512 512" viewBox="0 0 512 512">
    <path d="M341.333 298.667H384v-128C384 147.093 364.907 128 341.333 128h-128v42.667h128v128zM159.253 458.347C89.6 425.28 39.573 357.547 32 277.333H0C10.88 408.747 120.747 512 254.933 512c4.8 0 9.387-.427 14.08-.747l-81.28-81.387-28.48 28.481zM257.067 0c-4.8 0-9.387.427-14.08.747l81.28 81.387L352.64 53.76C422.4 86.72 472.427 154.453 480 234.667h32C501.12 103.253 391.253 0 257.067 0z"/>
    <path d="M170.667 85.333H128V128H85.333v42.667H128v170.667C128 364.907 147.093 384 170.667 384h170.667v42.667H384V384h42.667v-42.667h-256v-256z"/>
</svg>
