<svg xmlns="http://www.w3.org/2000/svg" width="40" height="40" viewBox="235 0 40 40">
    <path fill="#CB2027" fill-rule="evenodd" d="M254.817.568c-9.21.004-17.156 6.46-19.045 15.474-1.89 9.014 2.796 18.118 11.23 21.82-.056-1.36-.01-2.991.338-4.47.375-1.58 2.505-10.609 2.505-10.609-.423-.971-.635-2.021-.622-3.08 0-2.886 1.672-5.04 3.755-5.04 1.771 0 2.627 1.33 2.627 2.924 0 1.779-1.135 4.443-1.72 6.909-.488 2.065 1.036 3.75 3.072 3.75 3.69 0 6.173-4.738 6.173-10.352 0-4.267-2.873-7.46-8.101-7.46-5.906 0-9.585 4.4-9.585 9.324 0 1.703.5 2.892 1.278 3.818.36.426.41.596.283 1.086-.093.358-.308 1.22-.396 1.561-.129.492-.529.67-.974.487-2.72-1.111-3.988-4.09-3.988-7.438 0-5.534 4.664-12.161 13.914-12.161 7.433 0 12.324 5.378 12.324 11.152 0 7.638-4.245 13.34-10.5 13.34-2.102 0-4.079-1.136-4.757-2.427 0 0-1.136 4.486-1.37 5.351-.413 1.502-1.22 3.002-1.96 4.171 7.317 2.173 15.228-.129 20.236-5.889 5.008-5.76 6.188-13.914 3.019-20.857C269.383 5.009 262.45.558 254.817.568z"/>
</svg>
