<svg xmlns="http://www.w3.org/2000/svg" width="512" height="512" viewBox="0 0 502.401 502.401">
    <path d="M497.704 259.471L242.929 4.696c-9.6-9.604-26.107-3.583-27.256 9.96-13.205 155.521 116.62 285.264 272.071 272.07 13.53-1.148 19.571-17.644 9.96-27.255z"/>
    <path d="M407.193 313.437l12.858 25.717c5.309 10.615-2.419 23.155-14.311 23.155H106.757c-11.87 0-19.629-12.518-14.311-23.155L162.1 199.848c5.884-11.769 22.733-11.777 28.622 0l27.94 55.88 23.195-46.39c-43.167-55.856-64.13-126.01-58.069-197.39.102-1.202.251-2.394.442-3.574C.835 59.449-63.533 291.339 73.764 428.637 211.31 566.184 443.07 501.14 494.025 318.17c-16.738 2.707-53.493 2.363-86.832-4.733z"/>
</svg>
